<svg width="18" height="22" viewBox="0 0 18 22" fill="none" xmlns="http://www.w3.org/2000/svg">
<path d="M4.37104 5.73374C5.28943 4.39323 6.15622 3.17338 6.44644 1.67201C6.44644 1.67201 6.44644 1.67201 6.44644 1.64073C6.1485 1.2896 5.80703 0.988608 5.43262 0.747063C5.39628 0.718884 5.35401 0.701815 5.31003 0.697531C5.26605 0.693248 5.22182 0.701898 5.18171 0.722632C5.1416 0.743367 5.10707 0.775473 5.08135 0.815794C5.05562 0.856114 5.03965 0.903264 5.03505 0.952609C4.99209 1.236 4.93494 1.51645 4.86402 1.79266C4.73964 2.25094 4.546 2.68173 4.29154 3.06614C3.81446 3.78554 3.22605 4.43345 2.70126 5.11711C1.45289 6.74805 0.494769 8.76328 0.741263 10.9796C0.813998 11.6417 0.996059 12.2827 1.27802 12.8697C1.58227 10.8003 2.3164 8.84082 3.42089 7.1502C3.72304 6.66762 4.05298 6.19398 4.37104 5.73374Z" fill="#F62B2B" fill-opacity="0.7"/>
<path d="M15.4911 6.53804C15.4808 6.53428 15.4696 6.53428 15.4593 6.53804C15.4617 6.83958 15.4283 7.14012 15.3599 7.43171C15.2757 7.70919 15.1402 7.96349 14.9623 8.17792C14.8138 8.37186 14.6311 8.52915 14.4259 8.63989C14.2206 8.75063 13.9972 8.81241 13.7696 8.82136C13.4132 8.81723 13.0697 8.67162 12.7996 8.41028C11.9766 7.64172 11.8136 6.32803 11.575 5.22882C11.3319 4.12186 10.864 3.0932 10.2081 2.22341C9.55214 1.35362 8.72588 0.666314 7.79413 0.21533C7.75559 0.194858 7.71348 0.184179 7.67086 0.184052C7.5934 0.183931 7.51888 0.217246 7.46265 0.277116C7.40643 0.336987 7.37277 0.418841 7.3687 0.505773C7.33821 0.964737 7.28382 1.42129 7.20573 1.87309C6.7684 4.15194 5.21791 5.83651 4.057 7.68194C2.72911 9.8044 1.79877 12.396 2.03731 15.0324C2.33151 18.2898 4.38296 20.6714 6.89163 21.7349C6.4252 21.3548 6.03563 20.868 5.74852 20.3066C5.46141 19.7451 5.28329 19.1218 5.22583 18.4775C5.15047 16.926 5.56121 15.394 6.38671 14.1476C7.04668 13.0618 7.94123 12.0699 8.19568 10.7293C8.24121 10.4637 8.27175 10.195 8.28711 9.92505C8.28786 9.89267 8.29576 9.86101 8.31002 9.83287C8.32427 9.80473 8.34445 9.78098 8.36884 9.76373C8.39323 9.74649 8.42104 9.73629 8.44979 9.73403C8.47853 9.73177 8.50736 9.73752 8.53365 9.75078C9.07077 10.0243 9.54472 10.4329 9.91903 10.945C10.2933 11.4571 10.558 12.0591 10.6924 12.7044C10.8276 13.3478 10.923 14.1253 11.3961 14.5766C12.0482 15.1977 12.9108 14.5319 12.9148 13.6338V13.5399L12.9506 13.4819C13.0389 13.6393 13.1173 13.8036 13.1852 13.9734V13.9957C13.5798 14.9373 13.8023 15.9582 13.8399 16.9981C13.8775 18.0381 13.7292 19.0759 13.4039 20.0503C13.2513 20.471 13.0421 20.8628 12.7837 21.2121C12.561 21.5095 12.3043 21.7724 12.0203 21.9941C13.2577 21.583 14.3625 20.7774 15.2008 19.675C15.6501 19.0827 16.0163 18.4167 16.2863 17.7C16.5251 17.0614 16.7088 16.3985 16.8349 15.7205C16.9614 15.0349 17.0346 14.3381 17.0536 13.6382C17.074 12.9337 17.0448 12.2285 16.9661 11.5292C16.8891 10.8327 16.7641 10.144 16.5923 9.46928C16.4246 8.80435 16.2093 8.1558 15.9483 7.53001C15.8767 7.36468 15.8012 7.19042 15.7256 7.02509L15.6024 6.76146C15.5803 6.67872 15.5424 6.60245 15.4911 6.53804Z" fill="#F62B2B" fill-opacity="0.7"/>
</svg>
