<svg width="371" height="24" viewBox="0 0 371 24" fill="none" xmlns="http://www.w3.org/2000/svg">
<path d="M2.09767 21.8719C1.4658 21.8719 0.996165 21.6243 0.688768 21.129C0.38137 20.6167 0.227672 19.6945 0.227672 18.3625C0.227672 16.6547 0.38137 14.9726 0.688768 13.316C1.01324 11.6595 1.4658 10.1054 2.04644 8.65383C2.64416 7.20224 3.36142 5.92995 4.19822 4.83698C5.0521 3.72694 6.01699 2.86452 7.09288 2.24972C8.16877 1.61785 9.33859 1.30191 10.6023 1.30191C12.4809 1.30191 13.8727 1.8057 14.7778 2.81328C15.7 3.80379 16.1611 5.26392 16.1611 7.1937C16.1611 8.21835 15.9562 9.13201 15.5463 9.93466C15.1364 10.7202 14.5985 11.3436 13.9325 11.8047C13.2835 12.2487 12.5833 12.4707 11.8319 12.4707C11.405 12.4707 10.9524 12.3938 10.4742 12.2401C11.3964 13.4356 12.3186 14.4773 13.2408 15.3653C14.1801 16.2534 15.1108 17.0731 16.033 17.8245C16.9723 18.5589 17.9116 19.3103 18.8508 20.0788C19.3461 20.4716 19.6279 20.89 19.6962 21.334C19.7645 21.778 19.6449 22.1537 19.3375 22.4611C19.0472 22.7856 18.5947 22.9478 17.9799 22.9478C17.5017 22.9478 16.8954 22.7343 16.1611 22.3074C15.4268 21.8975 14.6327 21.3425 13.7788 20.6423C12.9249 19.9251 12.071 19.131 11.2171 18.26C10.3803 17.389 9.61183 16.501 8.91165 15.5959C8.22854 14.6908 7.67352 13.8284 7.24658 13.0086C6.83671 12.1889 6.63178 11.4887 6.63178 10.9081C6.63178 10.3616 6.77694 9.94319 7.06726 9.65287C7.35758 9.34548 7.73329 9.19178 8.19439 9.19178C8.57009 9.19178 8.91165 9.24301 9.21904 9.34548C9.54352 9.44794 9.88507 9.49918 10.2437 9.49918C10.6194 9.49918 11.0122 9.39671 11.4221 9.19178C11.849 8.98685 12.2076 8.67091 12.4979 8.24397C12.7883 7.79995 12.9334 7.23639 12.9334 6.55328C12.9334 5.80187 12.72 5.29808 12.293 5.04191C11.8832 4.78575 11.3281 4.65767 10.6279 4.65767C9.65452 4.65767 8.77502 4.99922 7.98945 5.68233C7.20388 6.36543 6.52078 7.33032 5.94014 8.57698C5.3595 9.82365 4.88986 11.2923 4.53123 12.983C4.18968 14.6737 3.95913 16.5181 3.83959 18.5162C3.77128 19.8141 3.6005 20.7021 3.32726 21.1803C3.05402 21.6414 2.64416 21.8719 2.09767 21.8719ZM26.1229 22.6916C25.713 22.6916 25.3544 22.5721 25.047 22.333C24.7396 22.0939 24.5859 21.5816 24.5859 20.796C24.5859 20.4374 24.714 19.8653 24.9702 19.0797C25.2263 18.2942 25.5679 17.372 25.9948 16.3131C26.4388 15.2373 26.9341 14.1016 27.4806 12.9062C28.027 11.7107 28.5991 10.5238 29.1969 9.34548C29.7946 8.16712 30.3752 7.07415 30.9388 6.06657C31.5023 5.05899 32.0232 4.20511 32.5014 3.50493C32.9966 2.78767 33.398 2.30949 33.7054 2.07041C34.1494 1.74593 34.5934 1.58369 35.0374 1.58369C35.2765 1.58369 35.507 1.60931 35.7291 1.66054C35.9681 1.71178 36.1645 1.79717 36.3182 1.91671C36.6769 2.13872 36.9928 2.56566 37.266 3.19753C37.5564 3.81233 37.8125 4.5552 38.0345 5.42616C38.2736 6.29712 38.47 7.23639 38.6237 8.24397C38.7945 9.23447 38.9397 10.2164 39.0592 11.1899C39.7081 11.1045 40.1522 11.0618 40.3913 11.0618C40.9036 11.0618 41.3561 11.1386 41.7489 11.2923C42.1417 11.4289 42.3466 11.7193 42.3637 12.1633C42.3979 12.5902 42.2613 12.9489 41.9539 13.2392C41.6635 13.5295 41.2878 13.743 40.8267 13.8796C40.6218 13.9479 40.1265 14.0589 39.341 14.2126C39.3922 15.0836 39.4178 15.8179 39.4178 16.4156C39.4178 17.9355 39.3324 19.1139 39.1617 19.9507C39.008 20.7875 38.803 21.3852 38.5469 21.7438C38.3078 22.1025 38.0516 22.3159 37.7784 22.3842C37.5222 22.4696 37.2917 22.5123 37.0867 22.5123C37.0697 22.5123 37.0526 22.5123 37.0355 22.5123C36.5402 22.5123 36.1731 22.3842 35.934 22.1281C35.712 21.8719 35.601 21.445 35.601 20.8473V19.0285C35.601 18.4649 35.5924 17.8331 35.5754 17.1329C35.5583 16.4327 35.5241 15.6898 35.4729 14.9042C34.4653 15.075 33.4577 15.2458 32.4502 15.4166C31.4597 15.5703 30.6058 15.7069 29.8885 15.8264C29.564 16.5949 29.2823 17.2866 29.0432 17.9014C28.8041 18.4991 28.6418 18.9687 28.5565 19.3103C28.3003 20.1471 28.0612 20.8046 27.8392 21.2827C27.6172 21.7438 27.4037 22.0683 27.1988 22.2562C27.0109 22.4611 26.8316 22.5806 26.6608 22.6148C26.4901 22.666 26.3107 22.6916 26.1229 22.6916ZM31.2974 12.6756C32.0147 12.5048 32.7063 12.3511 33.3723 12.2145C34.0384 12.0608 34.6702 11.9242 35.268 11.8047C35.1826 10.7458 35.0801 9.71265 34.9606 8.70507C34.841 7.69749 34.7044 6.80091 34.5507 6.01534C34.1067 6.86922 33.5858 7.89388 32.9881 9.08931C32.4075 10.2677 31.8439 11.4631 31.2974 12.6756ZM59.943 15.4934C58.9525 15.4934 57.9791 15.3739 57.0227 15.1348C56.0835 14.8957 55.1954 14.5883 54.3586 14.2126C53.9829 15.7496 53.6584 17.4317 53.3852 19.259C53.3169 19.7714 53.2144 20.241 53.0778 20.6679C52.9412 21.0778 52.7277 21.4108 52.4374 21.667C52.1471 21.9232 51.7201 22.0512 51.1566 22.0512C50.6272 22.0512 50.2771 21.8463 50.1063 21.4364C49.9355 21.0266 49.8501 20.5228 49.8501 19.9251C49.8501 19.7372 49.9184 19.2505 50.0551 18.4649C50.1917 17.6794 50.3624 16.7316 50.5674 15.6215C50.7723 14.4944 50.9858 13.3331 51.2078 12.1377C50.5076 11.4375 50.1575 10.7971 50.1575 10.2164C50.1575 9.92612 50.2429 9.65287 50.4137 9.39671C50.6015 9.12347 50.9602 8.98685 51.4896 8.98685C51.5579 8.98685 51.6518 9.01246 51.7714 9.0637C51.9421 8.10735 52.0873 7.25347 52.2068 6.50205C52.3435 5.73356 52.4203 5.17854 52.4374 4.83698C52.4715 4.18803 52.574 3.70986 52.7448 3.40246C52.9156 3.07799 53.129 2.86452 53.3852 2.76205C53.6584 2.64251 53.9317 2.58274 54.2049 2.58274C54.5635 2.58274 54.8368 2.65959 55.0246 2.81328C55.2125 2.96698 55.3064 3.30854 55.3064 3.83794C55.3064 4.35027 55.2979 4.81991 55.2808 5.24685C56.1176 3.81233 56.9886 2.80475 57.8937 2.22411C58.7988 1.62639 59.7893 1.32753 60.8652 1.32753C61.924 1.32753 62.8462 1.61785 63.6318 2.19849C64.4173 2.77913 65.0236 3.61593 65.4505 4.7089C65.8946 5.78479 66.1166 7.08269 66.1166 8.6026C66.1166 10.9252 65.5786 12.6585 64.5027 13.8027C63.4439 14.9299 61.924 15.4934 59.943 15.4934ZM55.2296 11.1899C55.8614 11.5314 56.536 11.8303 57.2533 12.0864C57.9705 12.3255 58.7049 12.4451 59.4563 12.4451C60.6688 12.4451 61.5568 12.1291 62.1204 11.4973C62.701 10.8654 62.9914 9.82365 62.9914 8.37205C62.9914 5.79333 62.2143 4.50397 60.6603 4.50397C59.6698 4.50397 58.7049 5.05899 57.7656 6.16904C56.8434 7.27908 55.9981 8.95269 55.2296 11.1899ZM74.3769 21.5901C74.3769 21.5901 74.3683 21.5901 74.3513 21.5901C74.078 21.5901 73.8048 21.5474 73.5315 21.4621C73.2583 21.3767 73.0363 21.129 72.8655 20.7192C72.6947 20.2922 72.6093 19.575 72.6093 18.5674C72.6093 17.8672 72.7033 17.0133 72.8911 16.0058C73.079 14.9982 73.3181 13.9137 73.6084 12.7525C73.9158 11.5741 74.2488 10.4043 74.6074 9.24301C74.966 8.08173 75.3076 6.9973 75.6321 5.98972C75.9736 4.98214 76.2725 4.11972 76.5286 3.40246C76.8019 2.6852 76.9983 2.20703 77.1178 1.96794C77.2374 1.67762 77.4338 1.43 77.707 1.22506C77.9973 1.00306 78.2962 0.89205 78.6036 0.89205C79.2355 0.89205 79.6453 1.06283 79.8332 1.40438C80.021 1.72886 80.115 2.08749 80.115 2.48027C80.115 2.82182 79.9698 3.61593 79.6795 4.8626C79.3892 6.09219 78.9281 7.90242 78.2962 10.2933C79.7307 10.1908 81.1994 10.0542 82.7022 9.88342C84.2221 9.71265 85.5627 9.55041 86.724 9.39671C86.9972 8.37205 87.2619 7.42424 87.5181 6.55328C87.7743 5.66525 87.9963 4.92237 88.1841 4.32465C88.372 3.70986 88.5001 3.3 88.5684 3.09507C88.8416 2.46319 89.1319 2.02771 89.4393 1.78863C89.7638 1.54954 90.0968 1.43 90.4384 1.43C90.8824 1.43 91.2581 1.57516 91.5655 1.86548C91.89 2.13872 92.0522 2.59981 92.0522 3.24876C92.0522 3.65863 91.9412 4.41858 91.7192 5.52863C91.4972 6.63867 91.2239 7.89388 90.8995 9.29424C91.1556 9.46502 91.3776 9.66995 91.5655 9.90904C91.7704 10.1481 91.8729 10.3701 91.8729 10.5751C91.8729 10.8483 91.8046 11.113 91.668 11.3692C91.5484 11.6083 91.2752 11.8217 90.8482 12.0096C90.7287 12.0608 90.5152 12.1206 90.2078 12.1889C89.8834 13.5039 89.5674 14.7676 89.26 15.9801C88.9697 17.1756 88.7221 18.2002 88.5171 19.0541C88.3122 19.8909 88.1927 20.4289 88.1585 20.6679C88.056 21.2998 87.8682 21.8292 87.595 22.2562C87.3217 22.7002 86.9033 22.9222 86.3397 22.9222C85.9128 22.9222 85.5627 22.7258 85.2895 22.333C85.0162 21.9402 84.8796 21.1376 84.8796 19.9251C84.8796 19.02 84.9735 17.9697 85.1614 16.7742C85.3492 15.5617 85.5798 14.3236 85.853 13.0599C84.5722 13.2648 83.1889 13.4441 81.7032 13.5978C80.2174 13.7344 78.7658 13.7942 77.3484 13.7771C76.8531 15.7069 76.4433 17.2439 76.1188 18.3881C75.8114 19.5323 75.5296 20.352 75.2734 20.8473C75.0173 21.3425 74.7184 21.5901 74.3769 21.5901ZM99.9953 22.6916C99.5854 22.6916 99.2268 22.5721 98.9194 22.333C98.612 22.0939 98.4583 21.5816 98.4583 20.796C98.4583 20.4374 98.5864 19.8653 98.8426 19.0797C99.0987 18.2942 99.4403 17.372 99.8672 16.3131C100.311 15.2373 100.806 14.1016 101.353 12.9062C101.899 11.7107 102.472 10.5238 103.069 9.34548C103.667 8.16712 104.248 7.07415 104.811 6.06657C105.375 5.05899 105.896 4.20511 106.374 3.50493C106.869 2.78767 107.27 2.30949 107.578 2.07041C108.022 1.74593 108.466 1.58369 108.91 1.58369C109.149 1.58369 109.379 1.60931 109.601 1.66054C109.841 1.71178 110.037 1.79717 110.191 1.91671C110.549 2.13872 110.865 2.56566 111.138 3.19753C111.429 3.81233 111.685 4.5552 111.907 5.42616C112.146 6.29712 112.342 7.23639 112.496 8.24397C112.667 9.23447 112.812 10.2164 112.932 11.1899C113.581 11.1045 114.025 11.0618 114.264 11.0618C114.776 11.0618 115.229 11.1386 115.621 11.2923C116.014 11.4289 116.219 11.7193 116.236 12.1633C116.27 12.5902 116.134 12.9489 115.826 13.2392C115.536 13.5295 115.16 13.743 114.699 13.8796C114.494 13.9479 113.999 14.0589 113.213 14.2126C113.265 15.0836 113.29 15.8179 113.29 16.4156C113.29 17.9355 113.205 19.1139 113.034 19.9507C112.88 20.7875 112.675 21.3852 112.419 21.7438C112.18 22.1025 111.924 22.3159 111.651 22.3842C111.395 22.4696 111.164 22.5123 110.959 22.5123C110.942 22.5123 110.925 22.5123 110.908 22.5123C110.413 22.5123 110.045 22.3842 109.806 22.1281C109.584 21.8719 109.473 21.445 109.473 20.8473V19.0285C109.473 18.4649 109.465 17.8331 109.448 17.1329C109.431 16.4327 109.397 15.6898 109.345 14.9042C108.338 15.075 107.33 15.2458 106.323 15.4166C105.332 15.5703 104.478 15.7069 103.761 15.8264C103.436 16.5949 103.155 17.2866 102.916 17.9014C102.676 18.4991 102.514 18.9687 102.429 19.3103C102.173 20.1471 101.934 20.8046 101.712 21.2827C101.49 21.7438 101.276 22.0683 101.071 22.2562C100.883 22.4611 100.704 22.5806 100.533 22.6148C100.362 22.666 100.183 22.6916 99.9953 22.6916ZM105.17 12.6756C105.887 12.5048 106.579 12.3511 107.245 12.2145C107.911 12.0608 108.543 11.9242 109.14 11.8047C109.055 10.7458 108.953 9.71265 108.833 8.70507C108.713 7.69749 108.577 6.80091 108.423 6.01534C107.979 6.86922 107.458 7.89388 106.861 9.08931C106.28 10.2677 105.716 11.4631 105.17 12.6756ZM124.91 13.4185C124.243 13.4185 123.697 13.2904 123.27 13.0342C122.86 12.7781 122.655 12.3511 122.655 11.7534C122.655 11.5826 122.903 11.3692 123.398 11.113C123.893 10.8398 124.568 10.5751 125.422 10.3189C126.293 10.0457 127.292 9.82365 128.419 9.65287C129.546 9.46502 130.733 9.37109 131.98 9.37109C133.021 9.37109 133.739 9.49918 134.131 9.75534C134.541 10.0115 134.746 10.4384 134.746 11.0362C134.746 11.2752 134.473 11.5314 133.926 11.8047C133.38 12.0779 132.637 12.3426 131.698 12.5988C130.759 12.8379 129.7 13.0342 128.521 13.1879C127.36 13.3416 126.156 13.4185 124.91 13.4185ZM152.737 22.2049C152.293 22.2049 151.969 21.9915 151.764 21.5645C151.559 21.1376 151.456 20.3776 151.456 19.2847C151.456 17.7477 151.55 16.1253 151.738 14.4175C151.943 12.6927 152.208 10.8312 152.532 8.83315C152.823 7.24493 153.514 6.02388 154.607 5.17C155.717 4.31612 157.203 3.61593 159.064 3.06945C160.226 2.7279 161.43 2.41196 162.676 2.12164C163.923 1.83132 165.093 1.60077 166.186 1.43C167.296 1.24214 168.209 1.14822 168.927 1.14822C169.473 1.14822 169.9 1.2336 170.208 1.40438C170.515 1.57516 170.728 1.78863 170.848 2.04479C170.985 2.28388 171.053 2.50589 171.053 2.71082C171.053 3.03529 170.976 3.32561 170.822 3.58178C170.669 3.83794 170.336 4.03433 169.823 4.17096C169.601 4.23927 169.132 4.35881 168.414 4.52959C167.714 4.68328 166.852 4.87114 165.827 5.09315C164.82 5.31516 163.752 5.55424 162.625 5.81041C161.498 6.04949 160.405 6.29712 159.346 6.55328C158.304 6.86068 157.536 7.23639 157.041 7.68041C156.563 8.10735 156.247 8.73068 156.093 9.55041C156.059 9.72119 156.025 9.96027 155.99 10.2677C156.691 10.0457 157.442 9.86634 158.245 9.72972C159.047 9.5931 159.79 9.49064 160.473 9.42233C161.156 9.35402 161.66 9.31986 161.985 9.31986C162.326 9.31986 162.685 9.37963 163.061 9.49918C163.453 9.60164 163.786 9.76388 164.06 9.98589C164.35 10.1908 164.495 10.4555 164.495 10.78C164.495 11.0874 164.376 11.3692 164.136 11.6253C163.897 11.8644 163.411 12.095 162.676 12.317C162.523 12.3682 162.173 12.4365 161.626 12.5219C161.097 12.6073 160.465 12.7183 159.73 12.8549C159.013 12.9745 158.279 13.1111 157.527 13.2648C156.793 13.4185 156.144 13.5807 155.581 13.7515C155.461 14.6737 155.35 15.5959 155.248 16.5181C155.145 17.4403 155.06 18.2429 154.991 18.926C154.923 19.5921 154.872 20.0105 154.838 20.1812C154.735 20.8131 154.488 21.3084 154.095 21.667C153.702 22.0256 153.249 22.2049 152.737 22.2049ZM176.416 8.32082C175.596 8.32082 175.015 8.23543 174.674 8.06465C174.332 7.89388 174.127 7.68895 174.059 7.44986C173.991 7.21077 173.957 7.00584 173.957 6.83507C173.957 6.81799 173.957 6.80945 173.957 6.80945C173.957 6.43374 174.127 6.07511 174.469 5.73356C174.81 5.37493 175.289 5.1273 175.903 4.99068C176.416 4.88822 177.022 4.78575 177.722 4.68328C178.439 4.56374 179.191 4.46128 179.976 4.37589C180.779 4.27342 181.548 4.19657 182.282 4.14534C183.016 4.09411 183.665 4.06849 184.229 4.06849C184.98 4.06849 185.561 4.17949 185.971 4.4015C186.381 4.60644 186.662 4.84552 186.816 5.11876C186.987 5.39201 187.072 5.62255 187.072 5.81041C187.072 5.98118 187.03 6.15196 186.944 6.32274C186.859 6.49351 186.645 6.66429 186.304 6.83507C185.979 7.00584 185.458 7.16808 184.741 7.32178C184.024 7.47548 183.033 7.62064 181.77 7.75726C181.65 7.77434 181.522 7.79141 181.385 7.80849C181.266 8.54283 181.121 9.42233 180.95 10.447C180.779 11.4546 180.591 12.5134 180.386 13.6234C180.198 14.7164 180.011 15.7667 179.823 16.7742C179.652 17.7647 179.498 18.6101 179.362 19.3103C180.062 19.242 180.677 19.1907 181.206 19.1566C181.753 19.1224 182.12 19.1053 182.308 19.1053C182.905 19.1053 183.315 19.2334 183.537 19.4896C183.759 19.7287 183.87 20.0446 183.87 20.4374C183.87 20.5911 183.597 20.8302 183.05 21.1547C182.504 21.4791 181.744 21.8292 180.771 22.2049C179.814 22.5806 178.713 22.9137 177.466 23.204C176.646 23.3918 175.835 23.537 175.032 23.6395C174.23 23.7419 173.649 23.7932 173.291 23.7932C172.59 23.7932 172.138 23.6651 171.933 23.4089C171.745 23.1527 171.651 22.8283 171.651 22.4355C171.651 22.0939 171.754 21.7438 171.959 21.3852C172.181 21.0266 172.488 20.7704 172.881 20.6167C173.291 20.463 173.743 20.3179 174.238 20.1812C174.734 20.0446 175.246 19.9251 175.775 19.8226C175.81 19.3786 175.878 18.7894 175.98 18.0551C176.083 17.3207 176.194 16.5181 176.313 15.6471C176.45 14.7591 176.587 13.8625 176.723 12.9574C176.877 12.0352 177.022 11.1728 177.159 10.3701C177.312 9.55041 177.44 8.84169 177.543 8.24397C177.048 8.2952 176.672 8.32082 176.416 8.32082ZM193.282 6.39959C192.462 6.39959 191.856 6.32274 191.463 6.16904C191.088 5.99826 190.84 5.80187 190.721 5.57986C190.618 5.34077 190.567 5.1273 190.567 4.93945C190.567 4.70036 190.703 4.42712 190.977 4.11972C191.25 3.79525 191.779 3.55616 192.565 3.40246C193.35 3.23169 194.281 3.07799 195.357 2.94137C196.433 2.78767 197.577 2.65959 198.79 2.55712C200.002 2.43758 201.232 2.33511 202.478 2.24972C203.725 2.16433 204.912 2.10456 206.039 2.07041C207.166 2.01917 208.165 1.99356 209.036 1.99356C209.941 1.99356 210.642 2.04479 211.137 2.14726C211.632 2.24972 211.982 2.3778 212.187 2.5315C212.409 2.6852 212.537 2.84744 212.571 3.01822C212.623 3.18899 212.648 3.35123 212.648 3.50493C212.648 3.53908 212.648 3.5647 212.648 3.58178C212.648 3.78671 212.597 4.00872 212.495 4.24781C212.409 4.48689 212.213 4.69182 211.905 4.8626C211.598 5.0163 211.137 5.09315 210.522 5.09315C210.3 5.09315 209.805 5.1273 209.036 5.19561C208.268 5.26392 207.329 5.34931 206.218 5.45178C205.108 5.55424 203.93 5.65671 202.683 5.75918C202.496 6.52767 202.282 7.42424 202.043 8.4489C201.821 9.47356 201.59 10.5495 201.351 11.6766C201.129 12.8037 200.916 13.9137 200.711 15.0067C200.506 16.0826 200.335 17.0816 200.199 18.0038C200.062 18.9089 199.968 19.6518 199.917 20.2325C199.849 21.018 199.618 21.5731 199.225 21.8975C198.849 22.2049 198.474 22.3586 198.098 22.3586C197.825 22.3586 197.552 22.2989 197.278 22.1793C197.005 22.0768 196.783 21.8463 196.612 21.4877C196.442 21.112 196.356 20.5569 196.356 19.8226C196.356 19.0712 196.424 18.149 196.561 17.056C196.698 15.946 196.877 14.7591 197.099 13.4953C197.338 12.2316 197.603 10.9593 197.893 9.67849C198.201 8.39767 198.516 7.20223 198.841 6.09219C197.697 6.17758 196.638 6.25443 195.665 6.32274C194.691 6.37397 193.897 6.39959 193.282 6.39959ZM236.606 15.4934C235.616 15.4934 234.642 15.3739 233.686 15.1348C232.747 14.8957 231.859 14.5883 231.022 14.2126C230.646 15.7496 230.322 17.4317 230.049 19.259C229.98 19.7714 229.878 20.241 229.741 20.6679C229.605 21.0778 229.391 21.4108 229.101 21.667C228.81 21.9232 228.384 22.0512 227.82 22.0512C227.291 22.0512 226.94 21.8463 226.77 21.4364C226.599 21.0266 226.514 20.5228 226.514 19.9251C226.514 19.7372 226.582 19.2505 226.718 18.4649C226.855 17.6794 227.026 16.7316 227.231 15.6215C227.436 14.4944 227.649 13.3331 227.871 12.1377C227.171 11.4375 226.821 10.7971 226.821 10.2164C226.821 9.92612 226.906 9.65287 227.077 9.39671C227.265 9.12347 227.624 8.98685 228.153 8.98685C228.221 8.98685 228.315 9.01246 228.435 9.0637C228.606 8.10735 228.751 7.25347 228.87 6.50205C229.007 5.73356 229.084 5.17854 229.101 4.83698C229.135 4.18803 229.237 3.70986 229.408 3.40246C229.579 3.07799 229.792 2.86452 230.049 2.76205C230.322 2.64251 230.595 2.58274 230.868 2.58274C231.227 2.58274 231.5 2.65959 231.688 2.81328C231.876 2.96698 231.97 3.30854 231.97 3.83794C231.97 4.35027 231.961 4.81991 231.944 5.24685C232.781 3.81233 233.652 2.80475 234.557 2.22411C235.462 1.62639 236.453 1.32753 237.529 1.32753C238.587 1.32753 239.51 1.61785 240.295 2.19849C241.081 2.77913 241.687 3.61593 242.114 4.7089C242.558 5.78479 242.78 7.08269 242.78 8.6026C242.78 10.9252 242.242 12.6585 241.166 13.8027C240.107 14.9299 238.587 15.4934 236.606 15.4934ZM231.893 11.1899C232.525 11.5314 233.199 11.8303 233.917 12.0864C234.634 12.3255 235.368 12.4451 236.12 12.4451C237.332 12.4451 238.22 12.1291 238.784 11.4973C239.364 10.8654 239.655 9.82365 239.655 8.37205C239.655 5.79333 238.878 4.50397 237.324 4.50397C236.333 4.50397 235.368 5.05899 234.429 6.16904C233.507 7.27908 232.661 8.95269 231.893 11.1899ZM252.164 8.32082C251.345 8.32082 250.764 8.23543 250.422 8.06465C250.081 7.89388 249.876 7.68895 249.808 7.44986C249.739 7.21077 249.705 7.00584 249.705 6.83507C249.705 6.81799 249.705 6.80945 249.705 6.80945C249.705 6.43374 249.876 6.07511 250.218 5.73356C250.559 5.37493 251.037 5.1273 251.652 4.99068C252.164 4.88822 252.771 4.78575 253.471 4.68328C254.188 4.56374 254.939 4.46128 255.725 4.37589C256.528 4.27342 257.296 4.19657 258.031 4.14534C258.765 4.09411 259.414 4.06849 259.977 4.06849C260.729 4.06849 261.309 4.17949 261.719 4.4015C262.129 4.60644 262.411 4.84552 262.565 5.11876C262.735 5.39201 262.821 5.62255 262.821 5.81041C262.821 5.98118 262.778 6.15196 262.693 6.32274C262.607 6.49351 262.394 6.66429 262.052 6.83507C261.728 7.00584 261.207 7.16808 260.49 7.32178C259.772 7.47548 258.782 7.62064 257.518 7.75726C257.399 7.77434 257.271 7.79141 257.134 7.80849C257.014 8.54283 256.869 9.42233 256.698 10.447C256.528 11.4546 256.34 12.5134 256.135 13.6234C255.947 14.7164 255.759 15.7667 255.571 16.7742C255.401 17.7647 255.247 18.6101 255.11 19.3103C255.81 19.242 256.425 19.1907 256.955 19.1566C257.501 19.1224 257.868 19.1053 258.056 19.1053C258.654 19.1053 259.064 19.2334 259.286 19.4896C259.508 19.7287 259.619 20.0446 259.619 20.4374C259.619 20.5911 259.346 20.8302 258.799 21.1547C258.253 21.4791 257.493 21.8292 256.519 22.2049C255.563 22.5806 254.461 22.9137 253.215 23.204C252.395 23.3918 251.584 23.537 250.781 23.6395C249.978 23.7419 249.398 23.7932 249.039 23.7932C248.339 23.7932 247.886 23.6651 247.681 23.4089C247.494 23.1527 247.4 22.8283 247.4 22.4355C247.4 22.0939 247.502 21.7438 247.707 21.3852C247.929 21.0266 248.237 20.7704 248.629 20.6167C249.039 20.463 249.492 20.3179 249.987 20.1812C250.482 20.0446 250.995 19.9251 251.524 19.8226C251.558 19.3786 251.626 18.7894 251.729 18.0551C251.831 17.3207 251.942 16.5181 252.062 15.6471C252.199 14.7591 252.335 13.8625 252.472 12.9574C252.625 12.0352 252.771 11.1728 252.907 10.3701C253.061 9.55041 253.189 8.84169 253.292 8.24397C252.796 8.2952 252.421 8.32082 252.164 8.32082ZM272.592 23.3321C271.96 23.3321 271.302 23.1784 270.619 22.871C269.936 22.5806 269.355 22.0854 268.877 21.3852C268.416 20.685 268.185 19.7543 268.185 18.593C268.185 17.3634 268.288 16.0911 268.493 14.7762C268.715 13.4441 268.997 12.1377 269.338 10.8568C269.697 9.55895 270.081 8.3379 270.491 7.1937C270.918 6.04949 271.336 5.03338 271.746 4.14534C272.173 3.2573 272.566 2.56566 272.925 2.07041C273.3 1.55808 273.599 1.30191 273.821 1.30191C274.282 1.30191 274.692 1.47269 275.051 1.81424C275.426 2.1558 275.614 2.67666 275.614 3.37685C275.614 3.54762 275.512 3.96602 275.307 4.63205C275.119 5.281 274.871 6.09219 274.564 7.06561C274.274 8.03904 273.949 9.09785 273.591 10.2421C273.249 11.3692 272.925 12.5134 272.617 13.6747C272.327 14.8359 272.079 15.9289 271.874 16.9536C271.686 17.9782 271.592 18.8577 271.592 19.5921C271.592 19.797 271.712 19.8995 271.951 19.8995C272.293 19.8995 272.796 19.8141 273.462 19.6433C274.146 19.4725 274.888 19.259 275.691 19.0029C276.511 18.7296 277.296 18.4649 278.048 18.2088C278.799 17.9526 279.44 17.7391 279.969 17.5684C280.498 17.3976 280.797 17.3122 280.866 17.3122C281.293 17.3122 281.634 17.4317 281.89 17.6708C282.146 17.9099 282.275 18.2515 282.275 18.6955C282.275 19.0029 282.07 19.3615 281.66 19.7714C281.25 20.1642 280.703 20.574 280.02 21.001C279.337 21.4108 278.569 21.7865 277.715 22.1281C276.878 22.4867 276.016 22.777 275.128 22.999C274.239 23.2211 273.394 23.3321 272.592 23.3321ZM288.816 22.6916C288.407 22.6916 288.048 22.5721 287.741 22.333C287.433 22.0939 287.28 21.5816 287.28 20.796C287.28 20.4374 287.408 19.8653 287.664 19.0797C287.92 18.2942 288.261 17.372 288.688 16.3131C289.132 15.2373 289.628 14.1016 290.174 12.9062C290.721 11.7107 291.293 10.5238 291.89 9.34548C292.488 8.16712 293.069 7.07415 293.632 6.06657C294.196 5.05899 294.717 4.20511 295.195 3.50493C295.69 2.78767 296.092 2.30949 296.399 2.07041C296.843 1.74593 297.287 1.58369 297.731 1.58369C297.97 1.58369 298.201 1.60931 298.423 1.66054C298.662 1.71178 298.858 1.79717 299.012 1.91671C299.37 2.13872 299.686 2.56566 299.96 3.19753C300.25 3.81233 300.506 4.5552 300.728 5.42616C300.967 6.29712 301.164 7.23639 301.317 8.24397C301.488 9.23447 301.633 10.2164 301.753 11.1899C302.402 11.1045 302.846 11.0618 303.085 11.0618C303.597 11.0618 304.05 11.1386 304.443 11.2923C304.835 11.4289 305.04 11.7193 305.057 12.1633C305.091 12.5902 304.955 12.9489 304.647 13.2392C304.357 13.5295 303.981 13.743 303.52 13.8796C303.315 13.9479 302.82 14.0589 302.035 14.2126C302.086 15.0836 302.111 15.8179 302.111 16.4156C302.111 17.9355 302.026 19.1139 301.855 19.9507C301.702 20.7875 301.497 21.3852 301.24 21.7438C301.001 22.1025 300.745 22.3159 300.472 22.3842C300.216 22.4696 299.985 22.5123 299.78 22.5123C299.763 22.5123 299.746 22.5123 299.729 22.5123C299.234 22.5123 298.867 22.3842 298.628 22.1281C298.406 21.8719 298.295 21.445 298.295 20.8473V19.0285C298.295 18.4649 298.286 17.8331 298.269 17.1329C298.252 16.4327 298.218 15.6898 298.166 14.9042C297.159 15.075 296.151 15.2458 295.144 15.4166C294.153 15.5703 293.299 15.7069 292.582 15.8264C292.258 16.5949 291.976 17.2866 291.737 17.9014C291.498 18.4991 291.335 18.9687 291.25 19.3103C290.994 20.1471 290.755 20.8046 290.533 21.2827C290.311 21.7438 290.097 22.0683 289.892 22.2562C289.705 22.4611 289.525 22.5806 289.354 22.6148C289.184 22.666 289.004 22.6916 288.816 22.6916ZM293.991 12.6756C294.708 12.5048 295.4 12.3511 296.066 12.2145C296.732 12.0608 297.364 11.9242 297.962 11.8047C297.876 10.7458 297.774 9.71265 297.654 8.70507C297.535 7.69749 297.398 6.80091 297.244 6.01534C296.8 6.86922 296.279 7.89388 295.682 9.08931C295.101 10.2677 294.537 11.4631 293.991 12.6756ZM312.033 6.39959C311.214 6.39959 310.607 6.32274 310.215 6.16904C309.839 5.99826 309.591 5.80187 309.472 5.57986C309.369 5.34077 309.318 5.1273 309.318 4.93945C309.318 4.70036 309.455 4.42712 309.728 4.11972C310.001 3.79525 310.531 3.55616 311.316 3.40246C312.102 3.23169 313.032 3.07799 314.108 2.94137C315.184 2.78767 316.328 2.65959 317.541 2.55712C318.753 2.43758 319.983 2.33511 321.23 2.24972C322.476 2.16433 323.663 2.10456 324.79 2.07041C325.918 2.01917 326.917 1.99356 327.788 1.99356C328.693 1.99356 329.393 2.04479 329.888 2.14726C330.383 2.24972 330.733 2.3778 330.938 2.5315C331.16 2.6852 331.288 2.84744 331.323 3.01822C331.374 3.18899 331.399 3.35123 331.399 3.50493C331.399 3.53908 331.399 3.5647 331.399 3.58178C331.399 3.78671 331.348 4.00872 331.246 4.24781C331.16 4.48689 330.964 4.69182 330.657 4.8626C330.349 5.0163 329.888 5.09315 329.273 5.09315C329.051 5.09315 328.556 5.1273 327.788 5.19561C327.019 5.26392 326.08 5.34931 324.97 5.45178C323.86 5.55424 322.681 5.65671 321.435 5.75918C321.247 6.52767 321.033 7.42424 320.794 8.4489C320.572 9.47356 320.342 10.5495 320.103 11.6766C319.881 12.8037 319.667 13.9137 319.462 15.0067C319.257 16.0826 319.086 17.0816 318.95 18.0038C318.813 18.9089 318.719 19.6518 318.668 20.2325C318.6 21.018 318.369 21.5731 317.976 21.8975C317.601 22.2049 317.225 22.3586 316.849 22.3586C316.576 22.3586 316.303 22.2989 316.03 22.1793C315.756 22.0768 315.534 21.8463 315.364 21.4877C315.193 21.112 315.107 20.5569 315.107 19.8226C315.107 19.0712 315.176 18.149 315.312 17.056C315.449 15.946 315.628 14.7591 315.85 13.4953C316.089 12.2316 316.354 10.9593 316.644 9.67849C316.952 8.39767 317.268 7.20223 317.592 6.09219C316.448 6.17758 315.389 6.25443 314.416 6.32274C313.442 6.37397 312.648 6.39959 312.033 6.39959ZM337.774 22.2049C337.313 22.2049 336.809 22.0939 336.262 21.8719C335.733 21.6328 335.229 21.2315 334.751 20.6679C334.273 20.1044 333.88 19.3274 333.573 18.3368C333.265 17.3463 333.112 16.0911 333.112 14.5712C333.112 13.4441 333.257 12.2999 333.547 11.1386C333.854 9.96027 334.333 8.85023 334.982 7.80849C335.63 6.76676 336.467 5.86164 337.492 5.09315C338.534 4.32465 339.78 3.78671 341.232 3.47931C341.83 3.34269 342.513 3.21461 343.281 3.09507C344.067 2.95844 344.861 2.8389 345.664 2.73643C346.466 2.61689 347.226 2.52296 347.943 2.45465C348.678 2.38634 349.293 2.35219 349.788 2.35219C350.608 2.35219 351.222 2.46319 351.632 2.6852C352.042 2.90721 352.315 3.16338 352.452 3.4537C352.589 3.72694 352.657 3.97456 352.657 4.19657C352.657 4.46981 352.572 4.74306 352.401 5.0163C352.247 5.28954 351.82 5.46886 351.12 5.55424C350.966 5.57132 350.642 5.61402 350.146 5.68233C349.651 5.73356 349.054 5.81041 348.353 5.91287C347.67 6.01534 346.944 6.12634 346.176 6.24589C345.425 6.34835 344.69 6.45936 343.973 6.5789C343.273 6.68137 342.666 6.77529 342.154 6.86068C341.027 7.06561 340.113 7.40717 339.413 7.88534C338.713 8.34644 338.167 8.89292 337.774 9.52479C337.398 10.1567 337.125 10.8227 336.954 11.5229C337.637 11.3692 338.346 11.2155 339.08 11.0618C339.815 10.9081 340.506 10.7715 341.155 10.6519C341.821 10.5324 342.393 10.4384 342.871 10.3701C343.35 10.3018 343.674 10.2677 343.845 10.2677C344.511 10.2677 344.912 10.3531 345.049 10.5238C345.203 10.6946 345.279 10.9593 345.279 11.3179C345.279 11.6424 344.989 12.0181 344.408 12.4451C343.828 12.8549 342.906 13.2733 341.642 13.7003C340.378 14.1272 338.722 14.5029 336.672 14.8274C336.672 14.8445 336.672 14.853 336.672 14.853C336.638 15.1946 336.612 15.5874 336.595 16.0314C336.578 16.4583 336.57 16.8853 336.57 17.3122C336.57 17.7391 336.595 18.0892 336.647 18.3625C336.698 18.6357 336.792 18.7723 336.928 18.7723C337.304 18.7723 337.825 18.6955 338.491 18.5418C339.157 18.3881 339.857 18.2002 340.592 17.9782C341.326 17.7562 342.009 17.5427 342.641 17.3378C343.273 17.1158 343.734 16.945 344.024 16.8255C344.451 16.6547 344.878 16.4839 345.305 16.3131C345.749 16.1424 346.099 16.057 346.355 16.057C346.611 16.057 346.833 16.1595 347.021 16.3644C347.209 16.5522 347.269 16.8426 347.201 17.2353C347.184 17.4061 347.004 17.6879 346.663 18.0807C346.338 18.4564 345.886 18.8833 345.305 19.3615C344.741 19.8226 344.067 20.2752 343.281 20.7192C342.513 21.1461 341.659 21.5047 340.72 21.7951C339.797 22.0683 338.815 22.2049 337.774 22.2049ZM357.317 22.999C356.634 22.999 356.121 22.8112 355.78 22.4355C355.438 22.0598 355.267 21.6755 355.267 21.2827C355.267 20.8216 355.353 20.4716 355.524 20.2325C355.694 19.9934 356.027 19.8141 356.523 19.6945C357.172 19.5579 357.846 19.3871 358.546 19.1822C359.264 18.9773 359.947 18.7638 360.596 18.5418C361.262 18.3027 361.842 18.0636 362.337 17.8245C362.833 17.5684 363.191 17.3293 363.413 17.1073C363.14 16.9536 362.705 16.7742 362.107 16.5693C361.509 16.3473 360.843 16.0911 360.109 15.8008C359.392 15.4934 358.7 15.1348 358.034 14.7249C357.368 14.3151 356.821 13.8369 356.394 13.2904C355.968 12.7439 355.754 12.1206 355.754 11.4204C355.754 10.447 356.002 9.53333 356.497 8.67945C356.992 7.82557 357.65 7.03146 358.469 6.29712C359.289 5.56278 360.177 4.88822 361.134 4.27342C362.107 3.65863 363.072 3.1036 364.028 2.60835C365.002 2.09602 365.873 1.64347 366.641 1.25068C366.931 1.0799 367.205 0.9689 367.461 0.917668C367.734 0.849357 367.982 0.815202 368.204 0.815202C368.972 0.815202 369.502 1.00306 369.792 1.37876C370.082 1.75447 370.227 2.13872 370.227 2.5315C370.227 2.80475 370.099 3.12922 369.843 3.50493C369.587 3.86356 369.177 4.19657 368.614 4.50397C368.067 4.81137 367.341 5.03338 366.436 5.17C366.282 5.18708 366.146 5.20415 366.026 5.22123C365.343 5.56278 364.609 5.97264 363.823 6.45082C363.038 6.92899 362.295 7.43278 361.595 7.96219C360.912 8.47452 360.348 8.98685 359.904 9.49918C359.46 10.0115 359.238 10.4726 359.238 10.8825C359.238 11.3436 359.426 11.762 359.801 12.1377C360.177 12.4963 360.655 12.8293 361.236 13.1367C361.834 13.427 362.457 13.7088 363.106 13.9821C363.772 14.2553 364.395 14.5371 364.976 14.8274C365.574 15.1006 366.06 15.408 366.436 15.7496C366.812 16.0911 367 16.4754 367 16.9023C367 17.483 366.803 18.038 366.411 18.5674C366.018 19.0968 365.505 19.5921 364.874 20.0532C364.242 20.4972 363.55 20.8985 362.799 21.2571C362.047 21.6158 361.304 21.9232 360.57 22.1793C359.853 22.4526 359.204 22.6575 358.623 22.7941C358.042 22.9307 357.607 22.999 357.317 22.999Z" fill="#1D2229"/>
</svg>
