<svg width="16" height="16" viewBox="0 0 16 16" fill="none" xmlns="http://www.w3.org/2000/svg">
<path d="M14.6663 8.83337V3.00004C14.6663 2.07957 13.9201 1.33337 12.9997 1.33337H2.99967C2.0792 1.33337 1.33301 2.07957 1.33301 3.00004V8.83337M14.6663 8.83337V13C14.6663 13.9205 13.9201 14.6667 12.9997 14.6667H2.99967C2.0792 14.6667 1.33301 13.9205 1.33301 13V8.83337M14.6663 8.83337H12.5115C12.2905 8.83337 12.0785 8.92117 11.9223 9.07745L9.91042 11.0893C9.75414 11.2456 9.54218 11.3334 9.32116 11.3334H6.67819C6.45717 11.3334 6.24521 11.2456 6.08893 11.0893L4.07709 9.07745C3.92081 8.92117 3.70884 8.83337 3.48783 8.83337H1.33301" stroke="white" stroke-width="1.5" stroke-linecap="round" stroke-linejoin="round"/>
</svg>