<svg width="23" height="22" viewBox="0 0 23 22" fill="none" xmlns="http://www.w3.org/2000/svg">
<path d="M11.8081 21.9941C14.7 21.9931 17.4732 20.8438 19.5181 18.7986C21.563 16.7534 22.7122 13.9797 22.7131 11.0874C22.7122 8.19532 21.5628 5.422 19.5178 3.37734C17.4728 1.33269 14.6997 0.184051 11.8081 0.184052C8.91649 0.184051 6.14323 1.33269 4.09824 3.37734C2.05326 5.422 0.903995 8.19532 0.903076 11.0874C0.903995 13.9797 2.05319 16.7534 4.09807 18.7986C6.14296 20.8438 8.91617 21.9931 11.8081 21.9941ZM7.08345 13.885L11.1148 10.7649V6.37935C11.1148 6.19546 11.1878 6.01906 11.3178 5.88903C11.4478 5.759 11.6242 5.68598 11.8081 5.68598C11.9919 5.68598 12.1682 5.759 12.2982 5.88903C12.4282 6.01906 12.5013 6.19546 12.5013 6.37935V11.1046C12.5013 11.1046 12.5013 11.1324 12.5013 11.1463C12.5013 11.1601 12.5013 11.1948 12.5013 11.2191C12.4972 11.2403 12.4914 11.2611 12.484 11.2814C12.486 11.3033 12.486 11.3255 12.484 11.3474L12.4562 11.4098L12.4251 11.4687L12.3869 11.5242C12.3737 11.542 12.3587 11.5582 12.3419 11.5727C12.3264 11.5917 12.3089 11.6091 12.2899 11.6247L12.2621 11.6524L7.96044 14.998C7.81548 15.1102 7.63202 15.1604 7.45014 15.1376C7.26825 15.1149 7.10273 15.021 6.98985 14.8766C6.92952 14.806 6.88399 14.7239 6.85597 14.6354C6.82795 14.5468 6.81805 14.4535 6.82678 14.361C6.83551 14.2685 6.86274 14.1787 6.90683 14.097C6.95093 14.0152 7.01096 13.9431 7.08345 13.885Z" fill="#09FF3F"/>
</svg>
