<svg width="20" height="20" viewBox="0 0 20 20" fill="none" xmlns="http://www.w3.org/2000/svg">
<path d="M14.1663 11.6667V16.6667M11.6663 14.1667H16.6663M4.99967 8.33337H6.66634C7.58682 8.33337 8.33301 7.58718 8.33301 6.66671V5.00004C8.33301 4.07957 7.58682 3.33337 6.66634 3.33337H4.99967C4.0792 3.33337 3.33301 4.07957 3.33301 5.00004V6.66671C3.33301 7.58718 4.0792 8.33337 4.99967 8.33337ZM13.333 8.33337H14.9997C15.9201 8.33337 16.6663 7.58718 16.6663 6.66671V5.00004C16.6663 4.07957 15.9201 3.33337 14.9997 3.33337H13.333C12.4125 3.33337 11.6663 4.07957 11.6663 5.00004V6.66671C11.6663 7.58718 12.4125 8.33337 13.333 8.33337ZM4.99967 16.6667H6.66634C7.58682 16.6667 8.33301 15.9205 8.33301 15V13.3334C8.33301 12.4129 7.58682 11.6667 6.66634 11.6667H4.99967C4.0792 11.6667 3.33301 12.4129 3.33301 13.3334V15C3.33301 15.9205 4.0792 16.6667 4.99967 16.6667Z" stroke="white" stroke-width="1.5" stroke-linecap="round" stroke-linejoin="round"/>
</svg>