<svg width="20" height="23" viewBox="0 0 20 23" fill="none" xmlns="http://www.w3.org/2000/svg">
<path d="M19.2151 12.8477C19.2151 13.2585 19.0538 13.6525 18.7667 13.943C18.4796 14.2335 18.0902 14.3967 17.6842 14.3967C17.6034 14.3947 17.5229 14.3869 17.4432 14.3734H17.3665C16.0966 14.1502 14.9161 13.5644 13.9642 12.685L15.3994 9.63345C15.6772 10.0812 16.0462 10.4638 16.4818 10.7556C16.9174 11.0475 17.4096 11.2418 17.9254 11.3257C18.2863 11.3838 18.6148 11.5706 18.8515 11.8524C19.0847 12.1305 19.2135 12.4829 19.2151 12.8477Z" fill="#F97316"/>
<path d="M8.34215 16.6931C7.93748 17.0119 7.49675 17.281 7.02937 17.4947C6.03208 17.9368 4.95312 18.1587 3.86438 18.1453C2.95756 18.1479 2.05517 18.0175 1.18535 17.758C0.802653 17.6311 0.484801 17.3566 0.30069 16.9942C0.116579 16.6318 0.0810158 16.2105 0.20174 15.8218C0.283194 15.5695 0.42733 15.3426 0.620338 15.1629C0.813346 14.9832 1.04871 14.8567 1.30392 14.7955C1.9622 14.6368 2.59753 14.9776 3.2405 15.0511C3.92892 15.1284 4.62573 15.0626 5.28807 14.8575C5.70396 14.7342 6.09337 14.5332 6.43623 14.265C6.52949 14.5721 6.65794 14.8672 6.81895 15.1441C7.19778 15.7756 7.71995 16.3066 8.34215 16.6931Z" fill="#F97316"/>
<path d="M18.664 22.0255C18.664 22.1796 18.6034 22.3273 18.4958 22.4363C18.3881 22.5452 18.2421 22.6064 18.0899 22.6064H5.84292C5.69067 22.6064 5.5446 22.5452 5.43694 22.4363C5.32928 22.3273 5.26884 22.1796 5.26884 22.0255C5.26884 21.8714 5.32928 21.7237 5.43694 21.6148C5.5446 21.5059 5.69067 21.4446 5.84292 21.4446H13.4973C13.5853 21.4446 13.6159 21.4214 13.6083 21.3207C13.5814 20.7405 13.52 20.1625 13.4246 19.5897C13.2981 18.9153 13.0545 18.2689 12.705 17.6806C12.5115 17.3629 12.2773 17.0725 12.0085 16.817C11.9204 16.7357 11.8248 16.6543 11.7252 16.573C11.3577 16.2823 10.9416 16.0606 10.4967 15.9186C9.54377 15.5933 8.68652 15.2835 8.14306 14.3696C7.94336 14.0309 7.81602 13.6536 7.76922 13.2621C7.72242 12.8706 7.75721 12.4735 7.87134 12.0964C8.00147 11.7556 8.19666 11.4226 8.35357 11.0934L9.63562 8.35168C9.67007 8.2781 9.87294 7.68172 9.95714 7.66236C9.64367 7.72351 9.33534 7.80897 9.03482 7.91796C7.98162 8.3187 7.01662 8.9253 6.19499 9.70318C6.04573 9.83949 5.87138 9.94473 5.68193 10.0129C5.49247 10.081 5.29165 10.1106 5.09085 10.1002C4.89005 10.0898 4.6932 10.0395 4.51163 9.95207C4.33007 9.86467 4.16736 9.74192 4.03267 9.59087C3.89796 9.43984 3.7939 9.26347 3.72657 9.07177C3.65924 8.88007 3.62993 8.67682 3.64024 8.47364C3.65054 8.27046 3.70028 8.07133 3.78665 7.88761C3.87303 7.7039 3.99439 7.53921 4.14368 7.40293C5.26093 6.35547 6.5702 5.53974 7.99758 5.00195C9.01086 4.62863 10.0805 4.43603 11.1588 4.4327C11.6998 4.4317 12.2395 4.4849 12.7701 4.59148C12.9116 4.602 13.0508 4.63331 13.1834 4.68442C13.3636 4.71122 13.5397 4.76065 13.7078 4.83158C14.2696 5.06937 14.715 5.52323 14.9461 6.09331C15.1772 6.6634 15.1751 7.30301 14.9401 7.87149L14.8253 8.1503L12.3644 13.3821C12.5099 13.4518 12.6591 13.5253 12.8007 13.6028C12.9423 13.6802 13.1834 13.839 13.3595 13.9668C13.9158 14.366 14.4132 14.8433 14.8368 15.3842C15.6931 16.526 16.2571 17.8642 16.4787 19.2799C16.6301 19.9988 16.6637 20.738 16.5782 21.4679C17.0795 21.4679 17.5809 21.4679 18.0822 21.4679C18.2319 21.4657 18.3765 21.5228 18.4851 21.627C18.5938 21.7312 18.658 21.8742 18.664 22.0255Z" fill="#F97316"/>
<path d="M3.05677 21.4446H1.67511C1.52286 21.4446 1.37688 21.5059 1.26922 21.6148C1.16156 21.7237 1.10104 21.8714 1.10104 22.0255C1.10104 22.1796 1.16156 22.3273 1.26922 22.4362C1.37688 22.5452 1.52286 22.6064 1.67511 22.6064H3.05677C3.20902 22.6064 3.355 22.5452 3.46266 22.4362C3.57032 22.3273 3.63084 22.1796 3.63084 22.0255C3.63084 21.8714 3.57032 21.7237 3.46266 21.6148C3.355 21.5059 3.20902 21.4446 3.05677 21.4446Z" fill="#F97316"/>
<path d="M15.1009 4.49077C16.1091 4.49077 16.9265 3.66375 16.9265 2.64358C16.9265 1.6234 16.1091 0.796387 15.1009 0.796387C14.0927 0.796387 13.2753 1.6234 13.2753 2.64358C13.2753 3.66375 14.0927 4.49077 15.1009 4.49077Z" fill="#F97316"/>
</svg>
